<?xml version="1.0" encoding="utf-8"?>
<svg xmlns="http://www.w3.org/2000/svg" id="Capa_1" version="1.1" viewBox="0 0 576 288">
  
  <defs>
    <style>
      .st0 {
        fill: #ffcf00;
      }

      .st1 {
        fill: #393939;
      }

      .st2 {
        fill: #0066b3;
      }

      .st2, .st3 {
        fill-rule: evenodd;
      }

      .st4 {
        fill: blue;
      }

      .st5 {
        isolation: isolate;
      }

      .st3 {
        fill: #f7941d;
      }

      .st6 {
        fill: #fff;
      }

      .st7 {
        fill: #00cf00;
      }

      .st8 {
        fill: red;
      }

      .st9 {
        fill: #003cff;
      }
    </style>
  </defs>
  <g class="st5">
    <path class="st4" d="M189,109.8h-15l13.7-63.3c7.1-.4,12.5-.6,16.2-.6s8.5.4,12,1,6.1,1.3,7.8,2.2c2.2,1.2,3.8,2.8,4.9,4.9,1.2,2.2,1.7,4.5,1.7,7.3,0,12.1-5.1,19.7-15.5,22.5-4.1,1.2-9.1,1.7-15,1.7h-5.8c0-.1-5,24.3-5,24.3h0ZM200,58.2l-3.5,15.8h5.1c3.4.1,5.9-.2,7.8-.8,1.9-.7,3.2-1.8,4.2-3.2,1-1.6,1.4-3.3,1.4-5.4s-1.1-4.5-3.1-5.5c-1.6-.7-3.8-1-7.1-1s-3.8,0-4.9.1h0Z"/>
    <path class="st4" d="M291.1,64.1c0,2.6-.2,5.9-.8,9.9s-1.4,8.2-2.6,12.2-2.5,7.4-4,10.2c-1.4,2.8-2.9,4.8-4.3,6.3-1.3,1.4-2.9,2.8-4.9,4.1-2,1.3-4.4,2.3-7.4,3-2.9.7-6.2,1.1-9.8,1.1-8.6,0-14.9-1.7-18.6-5s-5.5-8.5-5.5-15.3.2-6.5.8-10.4,1.4-7.7,2.6-11.4,2.5-6.7,3.8-9.2c1.4-2.5,2.9-4.5,4.3-6.2,1.4-1.4,3.1-2.9,5.1-4.2,2-1.4,4.6-2.4,7.3-3.1,2.9-.7,5.9-1.1,9.2-1.1,5.8,0,10.3.6,13.8,1.7,3.4,1.2,6,3.1,7.9,5.9,1.9,2.8,3,6.7,3,11.6h0ZM275.6,66.6c0-3.3-.7-5.8-2-7.3s-4-2.4-8-2.4-3.8.4-5.5,1.1-3.1,1.9-4.4,3.6c-2.2,2.8-3.8,6.9-5.1,12.7-1.3,5.8-2,10.5-2,14.5s.6,6.2,1.9,7.9c1.3,1.8,3.8,2.6,7.7,2.6s4.7-.4,6.4-1.1,3.2-2.2,4.5-4.3c1.1-1.6,2-3.8,3-6.9,1-3,1.8-6.6,2.5-10.7.8-4.2,1.2-7.4,1.2-9.7h0Z"/>
    <path class="st4" d="M344.7,109.5l-15.1.6-7.5-24.2h-4.9c0,.1-3.2.1-3.2.1l-5,23.8h-14.9l13.5-63.3c4.8-.4,10.4-.6,16.8-.6s7.1.2,10.4.8c3.2.6,5.8,1.2,7.4,2,1.1.6,2.2,1.3,3.2,2.5,1.1,1.1,1.9,2.5,2.5,4.3.6,1.8,1,3.6,1,5.6,0,3.7-.5,7-1.4,9.9-1,3-2.4,5.5-4.3,7.6s-4.3,3.7-7.1,4.8l8.6,25.9h0ZM316.5,74.5h3.4c4.1,0,7-.4,8.6-1,1.8-.7,3-1.9,4-3.6.8-1.7,1.3-3.6,1.3-5.8s-.2-2.2-.8-3.1-1.2-1.7-2-2c-1.7-.7-4-1.1-7.1-1.1h-3.8c0,.1-3.5,16.5-3.5,16.5h0Z"/>
    <path class="st4" d="M375.3,109.8h-14.9l10.9-51.2h-16.8l2.6-12.6h48.2l-2.6,12.6h-16.5l-10.9,51.2h0Z"/>
    <path class="st4" d="M441.7,109.8h-42l13.5-63.6h39.1l-2.8,12.6h-24.2l-2.6,12h21.9l-2.8,12.6h-21.8l-3,14h27.1l-2.4,12.5h0Z"/>
    <path class="st4" d="M449.8,107.7l3.8-11.5c2.8.8,5.8,1.4,9,1.9,3.4.5,6.5.7,9.5.7s5.8-.5,7.4-1.6c1.8-1.1,2.6-2.9,2.6-5.6s-.5-2.6-1.3-3.6c-.8-1-2.4-1.9-4.5-2.6l-6.5-2.4c-4.1-1.6-7.2-3.5-9.1-5.9-2-2.4-3-5.5-3-9.1,0-7.7,2.4-13.4,7.1-17.2s11.5-5.8,20.5-5.8,5.6.2,9,.6,6.1,1,8.4,1.6l-2.3,11.5c-4.3-.7-7.8-1.2-10.3-1.4-2.5-.4-5.1-.5-7.9-.5s-5,.6-6.5,1.9-2.2,3-2.2,5.3.4,2.6,1.1,3.6,2.2,1.8,4.1,2.5l6.7,2.8c4.4,1.7,7.7,3.6,9.6,5.9,2,2.3,3,5.2,3,8.6,0,8.3-2.3,14.3-7,18s-11.6,5.6-21,5.6-14.4-1.1-20.2-3.2h0Z"/>
    <path class="st4" d="M113,109.8h-42l13.5-63.6h39.1l-2.8,12.6h-24.2l-2.6,12h21.9l-2.8,12.6h-21.8l-3,14h27.1l-2.4,12.5h0Z"/>
    <path class="st4" d="M121.2,107.7l3.8-11.5c2.8.8,5.8,1.4,9,1.9,3.4.5,6.5.7,9.5.7s5.8-.5,7.4-1.6c1.8-1.1,2.6-2.9,2.6-5.6s-.5-2.6-1.3-3.6-2.4-1.9-4.6-2.6l-6.5-2.4c-4.1-1.6-7.2-3.5-9.1-5.9-2-2.4-3-5.5-3-9.1,0-7.7,2.4-13.4,7.1-17.2,4.7-3.8,11.5-5.8,20.5-5.8s5.6.2,9,.6c3.4.4,6.1,1,8.4,1.6l-2.3,11.5c-4.3-.7-7.8-1.2-10.3-1.4-2.5-.4-5.1-.5-7.9-.5s-5,.6-6.5,1.9-2.2,3-2.2,5.3.4,2.6,1.1,3.6,2.2,1.8,4.1,2.5l6.7,2.8c4.4,1.7,7.7,3.6,9.6,5.9,2,2.3,3,5.2,3,8.6,0,8.3-2.3,14.3-6.9,18s-11.6,5.6-21,5.6-14.4-1.1-20.2-3.2h0Z"/>
  </g>
  <g>
    <g>
      <g>
        <polygon class="st3" points="148.9 213.1 172.2 213.1 197.8 187.5 174.5 187.5 148.9 213.1"/>
        <polygon class="st3" points="202.7 159.3 192.5 169.4 200.4 184.9 226 159.3 202.7 159.3"/>
      </g>
      <g>
        <polygon class="st2" points="137.1 159.3 156.6 159.3 148.1 213.1 128.5 213.1 137.1 159.3 137.1 159.3 137.1 159.3"/>
        <path class="st2" d="M86.1,213.1h-20.7l27.2-53.8h21.6l10.7,53.8h-20.7l-.7-6.7h-14.8l-2.6,6.7h0ZM102.3,193.7l-1-9.9h0c-.2-2.3-.1-5.8,0-8.3h-.8l-6.7,18.2h8.5Z"/>
        <polygon class="st2" points="164 159.3 187.4 159.3 200.4 184.9 177.1 184.9 164 159.3"/>
        <path class="st2" d="M232.2,213.1h-20.7l27.2-53.8h21.6l10.7,53.8h-20.7l-.7-6.7h-14.8l-2.6,6.7h0ZM248.4,193.7l-1-9.9h0c-.2-2.3-.1-5.8,0-8.3h-.8l-6.7,18.2h8.5Z"/>
        <path class="st2" d="M68.5,181.1c-2.6-2.9-6.2-5.4-10.6-5.4s-11.4,4.6-12.3,10.5c-.9,5.9,3.4,10.5,9.3,10.5s8.4-1.9,12-5h0l-3.8,20.1h0c-3.4,1.5-10.7,2.1-14.3,2.1-15.3,0-25.4-11.9-23-27.2,2.5-15.7,16.8-28.3,32.6-28.3s8.9.8,12.8,2.2h0l-2.7,20.5h0Z"/>
        <polygon class="st2" points="182.3 203 197.8 187.5 210.8 213.1 187.5 213.1 182.3 203"/>
      </g>
    </g>
    <g>
      <polygon class="st0" points="450.6 216.2 440.2 216.2 440.2 198.7 414.9 156.2 384.6 207.1 390.6 216.2 450.6 216.2 450.6 216.2"/>
      <polygon class="st1" points="379.2 216.2 390.6 216.2 384.6 207.1 379.2 216.2"/>
      <polygon class="st1" points="440.2 198.7 440.2 216.2 450.6 216.2 440.2 198.7"/>
      <path class="st8" d="M328.3,216.2h5.3c9.9,0,18-8,18-18s-8-18-18-18h-6.8v35.9h1.5Z"/>
      <path class="st9" d="M326.8,180.3h4.8c6.6,0,12-5.4,12-12s-5.4-12-12-12h-4.8v24.1Z"/>
      <rect class="st0" x="510" y="156.2" width="20.7" height="39.8"/>
      <rect class="st9" x="530.7" y="196" width="20.7" height="20.2"/>
      <rect class="st1" x="510" y="196" width="20.7" height="20.2"/>
      <rect class="st7" x="485.7" y="156.2" width="20.7" height="60"/>
      <rect class="st7" x="306" y="156.2" width="20.7" height="24.1"/>
      <path class="st9" d="M375.1,192.4c10,0,18.1-8.1,18.1-18.1s-8.1-18.1-18.1-18.1h-23.5l23.5,36.2h0Z"/>
      <rect class="st9" x="459.8" y="156.2" width="22.4" height="21.8"/>
      <path class="st0" d="M466.7,178h-6.9v38.2h6.9c10.5,0,19.1-8.5,19.1-19.1s-8.5-19.1-19.1-19.1"/>
      <path class="st7" d="M453.5,156.2c-7.4,0-13.3,6-13.3,13.3s6,13.3,13.3,13.3h6.3v-26.7h-6.3Z"/>
      <rect class="st0" x="306" y="180.3" width="20.7" height="35.9"/>
      <polygon class="st0" points="375.1 192.4 351.6 156.2 351.6 192.4 375.1 192.4"/>
      <path class="st9" d="M436.8,216.2c0-12.1-9.8-21.9-21.9-21.9s-21.9,9.8-21.9,21.9h43.8Z"/>
      <polygon class="st8" points="440.2 182.8 440.2 198.7 450.6 216.2 459.8 216.2 459.8 182.8 440.2 182.8"/>
      <g>
        <polygon class="st7" points="390.6 216.2 390.4 215.9 390.6 216.2 390.6 216.2"/>
        <polygon class="st7" points="384.6 207.1 375.1 192.4 351.6 192.4 351.6 216.2 379.2 216.2 384.6 207.1"/>
      </g>
    </g>
    <g>
      <path class="st6" d="M321.1,229.6c1.2,0,2.2.4,3,1.2.8.8,1.2,1.9,1.2,3.1s-.4,2.2-1.2,3.1c-.8.8-1.8,1.3-3,1.3h-3.4v-8.6h3.4ZM321.1,236.9c.8,0,1.5-.3,2-.8.5-.6.8-1.3.8-2.1s-.3-1.6-.8-2.1c-.5-.6-1.2-.8-2-.8h-2v5.9h2Z"/>
      <path class="st6" d="M335.4,237.1c-.9.9-1.9,1.3-3.2,1.3s-2.3-.4-3.2-1.3c-.9-.9-1.3-1.9-1.3-3.2s.4-2.3,1.3-3.2c.9-.9,1.9-1.3,3.2-1.3s2.3.4,3.2,1.3c.9.9,1.3,1.9,1.3,3.2s-.4,2.3-1.3,3.2ZM330.1,236.2c.6.6,1.3.9,2.2.9s1.6-.3,2.2-.9c.6-.6.9-1.3.9-2.2s-.3-1.6-.9-2.2c-.6-.6-1.3-.9-2.2-.9s-1.6.3-2.2.9c-.6.6-.9,1.3-.9,2.2s.3,1.6.9,2.2Z"/>
      <path class="st6" d="M345.7,236.9h3.5v1.4h-4.9v-8.6h1.4v7.3Z"/>
      <path class="st6" d="M357.8,238.3l-.6-1.7h-3.7l-.6,1.7h-1.5l3.1-8.6h1.7l3.1,8.6h-1.5ZM354,235.2h2.7l-1.4-3.9-1.4,3.9Z"/>
      <path class="st6" d="M365.2,229.6c1.2,0,2.2.4,3,1.2.8.8,1.2,1.9,1.2,3.1s-.4,2.2-1.2,3.1c-.8.8-1.8,1.3-3,1.3h-3.4v-8.6h3.4ZM365.2,236.9c.8,0,1.5-.3,2-.8.5-.6.8-1.3.8-2.1s-.3-1.6-.8-2.1c-.5-.6-1.2-.8-2-.8h-2v5.9h2Z"/>
      <path class="st6" d="M379.5,237.1c-.9.9-1.9,1.3-3.2,1.3s-2.3-.4-3.2-1.3c-.9-.9-1.3-1.9-1.3-3.2s.4-2.3,1.3-3.2c.9-.9,1.9-1.3,3.2-1.3s2.3.4,3.2,1.3c.9.9,1.3,1.9,1.3,3.2s-.4,2.3-1.3,3.2ZM374.2,236.2c.6.6,1.3.9,2.2.9s1.6-.3,2.2-.9.9-1.3.9-2.2-.3-1.6-.9-2.2c-.6-.6-1.3-.9-2.2-.9s-1.6.3-2.2.9c-.6.6-.9,1.3-.9,2.2s.3,1.6.9,2.2Z"/>
      <path class="st6" d="M391.8,229.6c1.2,0,2.2.4,3,1.2.8.8,1.2,1.9,1.2,3.1s-.4,2.2-1.2,3.1c-.8.8-1.8,1.3-3,1.3h-3.4v-8.6h3.4ZM391.8,236.9c.8,0,1.5-.3,2-.8.5-.6.8-1.3.8-2.1s-.3-1.6-.8-2.1c-.5-.6-1.2-.8-2-.8h-2v5.9h2Z"/>
      <path class="st6" d="M406.1,237.1c-.9.9-1.9,1.3-3.2,1.3s-2.3-.4-3.2-1.3c-.9-.9-1.3-1.9-1.3-3.2s.4-2.3,1.3-3.2c.9-.9,1.9-1.3,3.2-1.3s2.3.4,3.2,1.3c.9.9,1.3,1.9,1.3,3.2s-.4,2.3-1.3,3.2ZM400.7,236.2c.6.6,1.3.9,2.2.9s1.6-.3,2.2-.9c.6-.6.9-1.3.9-2.2s-.3-1.6-.9-2.2c-.6-.6-1.3-.9-2.2-.9s-1.6.3-2.2.9c-.6.6-.9,1.3-.9,2.2s.3,1.6.9,2.2Z"/>
      <path class="st6" d="M418.2,229.6c.8,0,1.5.3,2,.8.5.5.8,1.2.8,2s-.3,1.5-.8,2c-.5.5-1.2.8-2,.8h-1.8v3h-1.4v-8.6h3.2ZM418.2,234c.4,0,.8-.1,1-.4.3-.3.4-.6.4-1.1s-.1-.8-.4-1.1c-.3-.3-.6-.4-1-.4h-1.8v3h1.8Z"/>
      <path class="st6" d="M431,237.1c-.9.9-1.9,1.3-3.2,1.3s-2.3-.4-3.2-1.3c-.9-.9-1.3-1.9-1.3-3.2s.4-2.3,1.3-3.2c.9-.9,1.9-1.3,3.2-1.3s2.3.4,3.2,1.3c.9.9,1.3,1.9,1.3,3.2s-.4,2.3-1.3,3.2ZM425.7,236.2c.6.6,1.3.9,2.2.9s1.6-.3,2.2-.9c.6-.6.9-1.3.9-2.2s-.3-1.6-.9-2.2c-.6-.6-1.3-.9-2.2-.9s-1.6.3-2.2.9c-.6.6-.9,1.3-.9,2.2s.3,1.6.9,2.2Z"/>
      <path class="st6" d="M437.1,238.3l-3-8.6h1.6l2.3,6.9,2.3-6.9h1.5l-3,8.6h-1.7Z"/>
      <path class="st6" d="M451.2,237.1c-.9.9-1.9,1.3-3.2,1.3s-2.3-.4-3.2-1.3c-.9-.9-1.3-1.9-1.3-3.2s.4-2.3,1.3-3.2c.9-.9,1.9-1.3,3.2-1.3s2.3.4,3.2,1.3c.9.9,1.3,1.9,1.3,3.2s-.4,2.3-1.3,3.2ZM445.8,236.2c.6.6,1.3.9,2.2.9s1.6-.3,2.2-.9c.6-.6.9-1.3.9-2.2s-.3-1.6-.9-2.2c-.6-.6-1.3-.9-2.2-.9s-1.6.3-2.2.9c-.6.6-.9,1.3-.9,2.2s.3,1.6.9,2.2Z"/>
      <path class="st6" d="M465.2,233.8c.4.2.7.5.9.8.2.3.3.7.3,1.2,0,.7-.3,1.3-.8,1.8s-1.1.7-1.8.7h-3.7v-8.6h3.4c.7,0,1.3.2,1.8.7.5.5.7,1,.7,1.7s-.3,1.3-.9,1.8ZM463.5,231h-2v2.3h2c.3,0,.6-.1.8-.3.2-.2.3-.5.3-.8s-.1-.6-.3-.8c-.2-.2-.5-.3-.8-.3ZM463.8,236.9c.3,0,.6-.1.8-.4.2-.2.3-.5.3-.9s-.1-.6-.3-.9c-.2-.2-.5-.4-.8-.4h-2.3v2.4h2.3Z"/>
      <path class="st6" d="M474.1,238.3l-1.8-3.1h-1.7v3.1h-1.4v-8.6h3.5c.8,0,1.4.3,2,.8.5.5.8,1.2.8,2s-.2,1.1-.5,1.5c-.3.5-.7.8-1.2,1l2,3.4h-1.6ZM470.6,231v2.9h2c.4,0,.7-.1,1-.4.3-.3.4-.6.4-1s-.1-.7-.4-1c-.3-.3-.6-.4-1-.4h-2Z"/>
      <path class="st6" d="M484,238.3l-.6-1.7h-3.7l-.6,1.7h-1.5l3.1-8.6h1.7l3.1,8.6h-1.5ZM480.2,235.2h2.7l-1.4-3.9-1.4,3.9Z"/>
      <path class="st6" d="M490.7,238.4c-.8,0-1.5-.2-2.1-.6-.6-.4-1-.9-1.2-1.6l1.2-.7c.3,1,1.1,1.5,2.1,1.5s.9-.1,1.2-.3c.3-.2.4-.5.4-.8s-.1-.6-.4-.8c-.3-.2-.8-.4-1.5-.6-.4-.1-.7-.3-1-.4s-.5-.2-.8-.4-.5-.4-.6-.7c-.1-.3-.2-.6-.2-1,0-.8.3-1.4.8-1.8.5-.4,1.2-.7,2-.7s1.3.2,1.8.5c.5.3.9.8,1.2,1.4l-1.2.7c-.4-.8-1-1.2-1.8-1.2s-.7,0-1,.3c-.2.2-.4.5-.4.8s.1.6.4.7c.3.2.7.4,1.4.6.3.1.6.2.7.3.2,0,.4.1.6.2.3.1.5.2.6.3.1.1.3.3.4.4.2.2.3.4.3.6,0,.2,0,.5,0,.8,0,.8-.3,1.4-.8,1.9-.6.5-1.3.7-2.2.7Z"/>
      <path class="st6" d="M496.6,229.6h1.4v8.6h-1.4v-8.6Z"/>
      <path class="st6" d="M502.8,236.9h3.5v1.4h-4.9v-8.6h1.4v7.3Z"/>
      <path class="st6" d="M510.3,236.9h3.8v1.4h-5.2v-8.6h5.2v1.4h-3.8v2.2h3.5v1.3h-3.5v2.3Z"/>
      <path class="st6" d="M517.1,229.6h1.4v8.6h-1.4v-8.6Z"/>
      <path class="st6" d="M526.8,238.3l-1.8-3.1h-1.7v3.1h-1.4v-8.6h3.5c.8,0,1.4.3,2,.8.5.5.8,1.2.8,2s-.2,1.1-.5,1.5c-.3.5-.7.8-1.2,1l2,3.4h-1.6ZM523.3,231v2.9h2c.4,0,.7-.1,1-.4.3-.3.4-.6.4-1s-.1-.7-.4-1c-.3-.3-.6-.4-1-.4h-2Z"/>
      <path class="st6" d="M538.2,237.1c-.9.9-1.9,1.3-3.2,1.3s-2.3-.4-3.2-1.3c-.9-.9-1.3-1.9-1.3-3.2s.4-2.3,1.3-3.2c.9-.9,1.9-1.3,3.2-1.3s2.3.4,3.2,1.3c.9.9,1.3,1.9,1.3,3.2s-.4,2.3-1.3,3.2ZM532.8,236.2c.6.6,1.3.9,2.2.9s1.6-.3,2.2-.9.9-1.3.9-2.2-.3-1.6-.9-2.2c-.6-.6-1.3-.9-2.2-.9s-1.6.3-2.2.9-.9,1.3-.9,2.2.3,1.6.9,2.2Z"/>
    </g>
    <g>
      <path class="st6" d="M370.5,136.8v.9c0,3.6-2.4,5.9-5.5,5.9s-6-2.6-6-6,2.7-6,6-6,4,1.1,5.1,2.8l-2.6,1.6c-.5-.9-1.4-1.4-2.5-1.4-1.7,0-2.9,1.3-2.9,3s1.2,3,2.9,3,2-.6,2.3-1.3h-3.1v-2.4h6.4Z"/>
      <path class="st6" d="M374.3,137.5c0-3.3,2.7-6,6-6s6,2.7,6,6-2.7,6-6,6-6-2.7-6-6ZM383,137.5c0-1.6-1.2-2.8-2.7-2.8s-2.7,1.2-2.7,2.8,1.2,2.8,2.7,2.8,2.7-1.2,2.7-2.8Z"/>
      <path class="st6" d="M400.7,131.8l-4.5,11.4h-3.1l-4.4-11.4h3.3l2.7,7,2.7-7h3.3Z"/>
      <path class="st6" d="M407.4,134.6v1.7h3.4v2.5h-3.4v1.7h5.1v2.8h-8.2v-11.4h8.2v2.8h-5.1Z"/>
      <path class="st6" d="M421.1,139.3h-1.3v3.9h-3v-11.4h5.5c2.2,0,3.9,1.6,3.9,3.7s-.8,2.7-2,3.3l2.5,4.4h-3.4l-2.3-3.9ZM419.9,136.7h2.2c.7,0,1.2-.5,1.2-1.1s-.4-1.1-1.2-1.1h-2.2v2.1Z"/>
      <path class="st6" d="M440.9,131.8v11.4h-2.6l-4.6-6v6h-3v-11.4h2.6l4.6,6v-6h3Z"/>
      <path class="st6" d="M444.9,137.5c0-3.3,2.7-6,6-6s6,2.7,6,6-2.7,6-6,6-6-2.7-6-6ZM453.5,137.5c0-1.6-1.2-2.8-2.7-2.8s-2.7,1.2-2.7,2.8,1.2,2.8,2.7,2.8,2.7-1.2,2.7-2.8Z"/>
      <path class="st6" d="M482.2,137.5c0,3.3-2.6,5.7-6.1,5.7h-4.7v-11.4h4.7c3.5,0,6.1,2.4,6.1,5.7ZM479,137.5c0-1.7-1.2-2.7-3.1-2.7h-1.4v5.5h1.4c1.8,0,3.1-1.1,3.1-2.7Z"/>
      <path class="st6" d="M370.5,136.8v.9c0,3.6-2.4,5.9-5.5,5.9s-6-2.6-6-6,2.7-6,6-6,4,1.1,5.1,2.8l-2.6,1.6c-.5-.9-1.4-1.4-2.5-1.4-1.7,0-2.9,1.3-2.9,3s1.2,3,2.9,3,2-.6,2.3-1.3h-3.1v-2.4h6.4Z"/>
      <path class="st6" d="M374.3,137.5c0-3.3,2.7-6,6-6s6,2.7,6,6-2.7,6-6,6-6-2.7-6-6ZM383,137.5c0-1.6-1.2-2.8-2.7-2.8s-2.7,1.2-2.7,2.8,1.2,2.8,2.7,2.8,2.7-1.2,2.7-2.8Z"/>
      <path class="st6" d="M400.7,131.8l-4.5,11.4h-3.1l-4.4-11.4h3.3l2.7,7,2.7-7h3.3Z"/>
      <path class="st6" d="M407.4,134.6v1.7h3.4v2.5h-3.4v1.7h5.1v2.8h-8.2v-11.4h8.2v2.8h-5.1Z"/>
      <path class="st6" d="M421.1,139.3h-1.3v3.9h-3v-11.4h5.5c2.2,0,3.9,1.6,3.9,3.7s-.8,2.7-2,3.3l2.5,4.4h-3.4l-2.3-3.9ZM419.9,136.7h2.2c.7,0,1.2-.5,1.2-1.1s-.4-1.1-1.2-1.1h-2.2v2.1Z"/>
      <path class="st6" d="M440.9,131.8v11.4h-2.6l-4.6-6v6h-3v-11.4h2.6l4.6,6v-6h3Z"/>
      <path class="st6" d="M444.9,137.5c0-3.3,2.7-6,6-6s6,2.7,6,6-2.7,6-6,6-6-2.7-6-6ZM453.5,137.5c0-1.6-1.2-2.8-2.7-2.8s-2.7,1.2-2.7,2.8,1.2,2.8,2.7,2.8,2.7-1.2,2.7-2.8Z"/>
      <path class="st6" d="M485,137.5c0-3.3,2.7-6,6-6s6,2.7,6,6-2.7,6-6,6-6-2.7-6-6ZM493.7,137.5c0-1.6-1.2-2.8-2.7-2.8s-2.7,1.2-2.7,2.8,1.2,2.8,2.7,2.8,2.7-1.2,2.7-2.8Z"/>
      <path class="st6" d="M482.2,137.5c0,3.3-2.6,5.7-6.1,5.7h-4.7v-11.4h4.7c3.5,0,6.1,2.4,6.1,5.7ZM479,137.5c0-1.7-1.2-2.7-3.1-2.7h-1.4v5.5h1.4c1.8,0,3.1-1.1,3.1-2.7Z"/>
    </g>
  </g>
</svg>