<?xml version="1.0" encoding="UTF-8" standalone="no"?>
<!-- Created with Inkscape (http://www.inkscape.org/) -->

<svg
   width="264.58334mm"
   height="104.51739mm"
   viewBox="0 0 264.58334 104.51739"
   version="1.1"
   id="svg5"
   xml:space="preserve"
   xmlns:xlink="http://www.w3.org/1999/xlink"
   xmlns="http://www.w3.org/2000/svg"
   xmlns:svg="http://www.w3.org/2000/svg"><defs
     id="defs2"><linearGradient
       id="linearGradient5"><stop
         style="stop-color:#fffac9;stop-opacity:1;"
         offset="0"
         id="stop5" /><stop
         style="stop-color:#fef6a5;stop-opacity:1;"
         offset="0.14617486"
         id="stop8" /><stop
         style="stop-color:#feea1a;stop-opacity:1;"
         offset="0.33333334"
         id="stop7" /><stop
         style="stop-color:#d7ad2e;stop-opacity:1;"
         offset="0.68852454"
         id="stop9" /><stop
         style="stop-color:#ffab05;stop-opacity:0;"
         offset="0.96994537"
         id="stop6" /></linearGradient><linearGradient
       xlink:href="#linearGradient5"
       id="linearGradient6"
       x1="64.942207"
       y1="94.869217"
       x2="127.85517"
       y2="94.869217"
       gradientUnits="userSpaceOnUse"
       gradientTransform="matrix(3.2484539,0,0,3.3177527,-222.47155,111.20298)" /></defs><g
     id="layer1"
     transform="translate(12.251826,-329.04665)"><path
       d="m 27.594313,361.97497 c -2.739945,0 -5.225025,1.65689 -6.287016,4.18468 L 11.027159,392.77581 0.87445952,366.49951 c -1.1044702,-2.86765 -3.50458872,-4.52454 -6.54190392,-4.52454 -3.6957464,0 -6.5843816,2.86768 -6.5843816,6.52128 0.04247,1.04088 0.276128,2.06047 0.700915,3.01637 l 14.974167,35.83519 c 1.3381179,3.18628 3.8656732,4.94939 7.115383,4.94939 h 0.658438 c 3.249717,0 5.77727,-1.76311 7.115381,-4.94939 l 15.101601,-36.13257 c 0.403569,-0.89217 0.637202,-1.8693 0.65845,-2.84645 0.04245,-3.58987 -2.824924,-6.39382 -6.478196,-6.39382 z m 100.549957,0.12753 c -2.44265,0 -4.43917,1.21078 -6.11713,3.67487 l -10.1952,14.52951 -9.98273,-14.38082 c -1.10448,-1.61441 -2.931137,-3.75984 -6.265817,-3.75984 -3.63201,0 -6.584378,2.86767 -6.584378,6.39382 0.02125,1.63565 0.552241,3.22878 1.55052,4.52457 l 14.634345,19.8612 v 12.63898 c 0,3.63238 2.95233,6.58503 6.58438,6.58503 3.63203,0 6.58436,-2.95265 6.58436,-6.58503 v -12.83012 l 14.63428,-19.75504 c 1.06203,-1.48693 1.59304,-2.97387 1.59304,-4.43959 0.0189,-3.8023 -2.63377,-6.45754 -6.43567,-6.45754 z m -66.35364,-0.5098 c -14.103318,0 -25.55165,11.42814 -25.55165,25.55405 0,14.12592 11.427094,25.5541 25.55165,25.5541 14.124576,0 25.55168,-11.42818 25.55168,-25.5541 0,-14.12591 -11.427104,-25.55405 -25.55168,-25.55405 z m 0,38.10808 c -6.945461,0 -12.574038,-5.62914 -12.574038,-12.57524 0,-6.94612 5.628577,-12.57525 12.574038,-12.57525 6.945473,0 12.574056,5.62913 12.574056,12.57525 0,6.9461 -5.628583,12.57524 -12.574056,12.57524 z m 99.5516,-38.10808 c -14.10329,0 -25.55161,11.42814 -25.55161,25.55405 0,14.10468 11.42707,25.5541 25.55161,25.5541 14.10334,0 25.55172,-11.42818 25.55172,-25.5541 0,-14.10464 -11.44838,-25.55405 -25.55172,-25.55405 z m 0,38.10808 c -6.9454,0 -12.57398,-5.62914 -12.57398,-12.57524 0,-6.94612 5.62858,-12.57525 12.57398,-12.57525 6.94552,0 12.57408,5.62913 12.57408,12.57525 0,6.9461 -5.62856,12.57524 -12.57408,12.57524 z"
       fill="#6f5ee2"
       id="path1"
       style="opacity:1;fill:#19083f;fill-opacity:1;stroke-width:0.212409" /><path
       style="font-weight:900;font-size:9.39258px;font-family:'Gotham Black';-inkscape-font-specification:'Gotham Black, Heavy';font-feature-settings:'ss01';opacity:1;fill:#19083f;stroke-width:0.272407;fill-opacity:1"
       d="m 119.72435,354.64923 c 5.04952,0 8.40596,-2.4793 8.40596,-6.65034 v -0.0583 c 0,-3.821 -2.97031,-5.33775 -7.72279,-6.35865 -2.91088,-0.61254 -3.62379,-1.07921 -3.62379,-1.98344 v -0.0583 c 0,-0.78752 0.68318,-1.31255 2.07922,-1.31255 1.87132,0 3.9208,0.6417 5.8218,2.01261 l 2.8812,-3.99605 c -2.25745,-1.77924 -4.9901,-2.71264 -8.55447,-2.71264 -4.99013,0 -8.04952,2.71264 -8.04952,6.53368 v 0.0583 c 0,4.20022 3.44556,5.39611 7.84159,6.38782 2.85151,0.70003 3.53467,1.10839 3.53467,1.98344 v 0.0583 c 0,0.90422 -0.83171,1.40008 -2.40594,1.40008 -2.37625,0 -4.6337,-0.81673 -6.7426,-2.45015 l -3.20793,3.76271 c 2.61387,2.24595 6.02973,3.38349 9.7426,3.38349 z m 11.19807,-0.35002 h 5.76238 v -5.83361 h 2.8812 c 5.1386,0 8.91089,-2.53765 8.91089,-7.37954 v -0.0583 c 0,-4.52106 -3.38612,-7.1462 -8.61387,-7.1462 h -8.9406 z m 5.76238,-10.26716 v -5.3961 h 2.73266 c 2.04952,0 3.32675,0.90418 3.32675,2.65427 v 0.0583 c 0,1.63342 -1.27723,2.68346 -3.29703,2.68346 z m 24.71293,10.67553 c 6.41584,0 11.22774,-4.7544 11.22774,-10.61721 v -0.0583 c 0,-5.83361 -4.75249,-10.55887 -11.16832,-10.55887 -6.41587,0 -11.22779,4.75445 -11.22779,10.61723 v 0.0583 c 0,5.83362 4.75252,10.55888 11.16837,10.55888 z m 0.0595,-5.10445 c -3.17825,0 -5.34654,-2.59592 -5.34654,-5.51276 v -0.0583 c 0,-2.94597 2.1089,-5.45442 5.28713,-5.45442 3.17822,0 5.31685,2.53762 5.31685,5.51278 v 0.0583 c 0,2.946 -2.10896,5.45443 -5.25744,5.45443 z m 14.13861,4.69608 h 5.7624 v -6.18362 h 2.55448 l 4.18812,6.18362 h 6.62377 l -4.96042,-7.11701 c 2.61386,-1.07922 4.27725,-3.15015 4.27725,-6.30033 v -0.0583 c 0,-1.95428 -0.62378,-3.55852 -1.84157,-4.75441 -1.39607,-1.37089 -3.56437,-2.18759 -6.7723,-2.18759 h -9.83173 z m 5.7624,-10.61718 v -4.92942 h 3.80197 c 1.90103,0 3.11885,0.81669 3.11885,2.45012 v 0.0583 c 0,1.48759 -1.15843,2.42094 -3.08911,2.42094 z m 20.67333,10.61718 h 5.76237 V 338.8401 h 6.23763 v -4.95855 h -18.20791 v 4.95855 h 6.20795 z"
       id="text1"
       aria-label="SPORT" /><g
       id="g1792"
       transform="translate(0,189.28859)"><path
         style="opacity:1;fill:#3bb14a;fill-opacity:1;stroke-width:0.817664"
         d="m 252.33152,139.75821 -12.44073,30.23351 h -28.49291 l 12.44073,-30.23366 z"
         id="path2" /><g
         id="g1786"><path
           style="display:inline;opacity:1;fill:#000000;fill-opacity:1;stroke-width:0.871153"
           d="m 229.93816,166.11913 6.36034,5e-5 -0.009,-20.73348 -8.06846,-0.006 -1.60787,4.90532 3.20009,-0.023 z"
           id="path3-7" /><path
           style="display:inline;opacity:1;fill:#ffffff;fill-opacity:1;stroke-width:0.871153"
           d="m 229.05054,165.22065 6.36034,5e-5 -0.009,-20.73348 -8.06846,-0.006 -1.60787,4.90532 3.20009,-0.023 z"
           id="path3" /></g></g><path
       style="opacity:1;fill:url(#linearGradient6);stroke-width:0.868604"
       d="m -10.583042,433.55682 c -0.916021,0.12875 -1.218057,-1.50627 -0.120978,-1.57733 0,0 31.235835,-5.87594 110.515701,-10.33337 63.848129,-2.37635 91.984839,-2.97112 91.984839,-2.97112 l -3.87553,10.24785 c 0,0 -59.54732,0.0643 -119.977193,1.60273 -51.509854,1.31131 -78.526848,3.03124 -78.526845,3.03124 z"
       id="path5" /></g></svg>
