<?xml version="1.0" encoding="UTF-8"?>
<svg width="90px" height="56px" viewBox="0 0 90 56" version="1.1" xmlns="http://www.w3.org/2000/svg" xmlns:xlink="http://www.w3.org/1999/xlink">
    <title>Group</title>
    <g id="Page-1" stroke="none" stroke-width="1" fill="none" fill-rule="evenodd">
        <g id="Group" transform="translate(0.031930, 0.191840)" fill-rule="nonzero">
            <polyline id="Fill-1" fill="#04DB3B" points="0 54.7219477 0 0 13.7666216 0 13.7666216 5.78428832 6.41285297 5.78428832 6.41285297 48.9368868 13.7666216 48.9368868 13.7666216 54.7219477 0 54.7219477"></polyline>
            <polyline id="Fill-2-Copy" fill="#04DB3B" points="74.96807 48.9368868 82.321838 48.9368868 82.321838 5.78428832 74.96807 5.78428832 74.96807 0 88.779239 0 88.779239 54.7219477 74.96807 54.7219477 74.96807 48.9368868"></polyline>
            <path d="M47.96807,37.3760353 L51.118618,32.2058915 C53.51494,34.8985996 56.328932,36.2445674 59.559822,36.2445674 C61.175652,36.2445674 62.306605,35.989382 62.95268,35.4774662 C63.59927,34.9663229 63.922179,34.2926952 63.922179,33.4578707 C63.922179,32.5694856 63.376787,31.9028105 62.286263,31.458618 C61.195995,31.0139104 59.472013,30.448434 57.116634,29.7619312 C54.759709,29.0754283 52.794962,28.1059298 51.219302,26.8539506 C49.644156,25.6022288 48.856712,23.7108698 48.856712,21.179101 C48.856712,18.7559984 49.76544,16.7562307 51.582896,15.1813427 C53.400609,13.6059398 56.059327,12.8179809 59.559822,12.8179809 C63.329664,12.8179809 66.479955,14.1647212 69.011209,16.8574293 L66.022373,21.5426951 C64.056853,19.4425012 61.915973,18.3924043 59.600507,18.3924043 C57.87704,18.3924043 56.678621,18.6547998 56.006024,19.1801057 C55.332138,19.7048967 54.99584,20.345049 54.99584,21.0987601 C54.99584,21.9062893 55.453422,22.5794019 56.369103,23.1175831 C57.284268,23.6565367 59.18979,24.3232118 62.08438,25.1173508 C64.978713,25.9114898 67.018394,26.9888821 68.20368,28.3482401 C69.388193,29.7086281 69.98045,31.3440292 69.98045,33.2559884 C69.98045,35.8680981 69.09876,37.9549019 67.33538,39.5161421 C65.57097,41.0781549 62.96607,41.8586463 59.519909,41.8586463 C55.211112,41.8586463 51.360928,40.3643568 47.96807,37.3760353" id="Fill-5-Copy" fill="#0F0F0F"></path>
            <path d="M32.3020696,12.8211603 L47.1850696,41.8081603 L40.4610696,41.8081603 L38.1650696,37.2571603 L26.3980696,37.2571603 L24.1020696,41.8081603 L17.4190696,41.8081603 L32.3020696,12.8211603 Z M32.2610696,25.6131603 L29.1040696,31.8861603 L35.4180696,31.8861603 L32.2610696,25.6131603 Z" id="Combined-Shape" fill="#000105"></path>
        </g>
    </g>
</svg>